# xmcd
#
# Track frame offsets:
#	150
#	35123
#	56541
#	96259
#	122311
#	147688
#	164078
#	191557
#	221071
#	254788
#	284448
#	315091
#
# Disc length: 4581 seconds
#
# Revision: 6
# Processed by: cddbd v1.5.2PL0 Copyright (c) Steve Scherf et al.
# Submitted via: audiograbber 1.82.01
#
DISCID=be11e30c
DTITLE=Dj Selection 19 (The History Of House Music Part. 4) - Www.doityourself.
DTITLE=it
DYEAR=2004
DGENRE=HOUSE
TTITLE0=Praise Cats Feat. Andrea Love - Shined On Me
TTITLE1=The Rumbar - El Timbal
TTITLE2=Deepswing - In The Music
TTITLE3=The Bitch Hotel - Do U Wanna Dance
TTITLE4=Pussy Dub Foundation - Make The World Go Round
TTITLE5=Planet Funk - Who Said
TTITLE6=Black Legend - You See The Trouble With Me
TTITLE7=Milk and Sugar - Higher and Higher
TTITLE8=Par - T - One - I'm So Crazy
TTITLE9=Pasta Boys Feat. Casa Nostra - Okydoky
TTITLE10=Sueno Latino - Sueno Latino
TTITLE11=The Ones - Flawless
EXTD=YEAR: 2004
EXTT0=
EXTT1=
EXTT2=
EXTT3=
EXTT4=
EXTT5=
EXTT6=
EXTT7=
EXTT8=
EXTT9=
EXTT10=
EXTT11=
PLAYORDER=
